<?xml version="1.0" encoding="utf-8"?>
<svg viewBox="0 0 500 500" xmlns="http://www.w3.org/2000/svg">
  <defs>
    <linearGradient gradientUnits="userSpaceOnUse" x1="245.892" y1="-10.696" x2="245.892" y2="501.306" id="gradient-0">
      <stop offset="0" style="stop-color: rgba(144, 144, 144, 1)"/>
      <stop offset="1" style="stop-color: rgba(93, 93, 93, 1)"/>
    </linearGradient>
  </defs>
  <path d="M 321.669 213.406 C 349.959 213.406 376.549 224.396 396.529 244.376 L 416.119 263.966 C 456.129 246.226 487.369 210.666 497.739 167.316 C 503.464 143.396 503.079 120.236 497.953 98.916 C 495.34 88.036 481.523 84.406 473.613 92.312 L 404.713 161.212 L 329.113 161.212 L 329.113 86.506 L 398.013 17.606 C 405.925 9.694 402.288 -4.124 391.409 -6.734 C 370.089 -11.859 346.929 -12.244 323.009 -6.52 C 267.709 6.71 224.619 53.7 215.809 109.88 C 214.369 118.206 214.069 126.306 214.169 134.306 L 296.949 217.166 C 305.069 214.406 313.369 213.406 321.669 213.406 Z M 373.869 267.906 C 350.709 244.746 316.299 240.336 288.479 254.006 L 180.969 147.306 L 180.969 85.296 L 53.869 -10.694 L -10.131 52.406 L 85.869 179.506 L 147.909 179.513 L 254.609 286.113 C 240.939 313.933 245.358 348.343 268.519 371.503 L 385.519 488.603 C 400.139 503.103 423.729 503.103 438.229 488.602 L 490.979 435.852 C 505.479 421.352 505.479 397.772 490.977 383.142 L 373.869 267.906 Z M 217.769 296.306 L 158.569 237.206 L 9.669 386.106 C -16.701 412.476 -16.701 455.186 9.669 481.556 C 22.829 494.706 40.079 501.306 57.369 501.306 C 74.659 501.306 91.909 494.714 105.089 481.526 L 224.189 362.426 C 215.369 341.606 212.469 318.706 217.769 296.306 Z M 53.869 461.306 C 40.619 461.306 29.869 450.556 29.869 437.306 C 29.869 424.046 40.619 413.306 53.869 413.306 C 67.119 413.306 77.869 424.006 77.869 437.306 C 77.869 450.606 67.119 461.306 53.869 461.306 Z" style="fill: url(#gradient-0);"/>
</svg>